<svg width="100" height="100" viewBox="0 0 105 106" xmlns="http://www.w3.org/2000/svg"><title>menu</title><g fill="none" fill-rule="evenodd"><path d="M0 8.367C0 3.746 3.737 0 8.36 0h88.28A8.36 8.36 0 0 1 105 8.367v18.542H0V8.367z" fill="#00BCD4" class="docs-svg-primary-light-20-fill"/><path d="M10 10a2 2 0 1 0 0-4 2 2 0 0 0 0 4zm0 5a2 2 0 1 0 0-4 2 2 0 0 0 0 4zm0 5a2 2 0 1 0 0-4 2 2 0 0 0 0 4z" fill="#FFF"/><rect fill="#F4F6F7" y="26" width="105" height="80" rx="8.36"/><path fill="#F4F6F7" d="M0 26h105v21H0z"/></g></svg>
