<svg width="100" height="100" viewBox="0 0 99 89" xmlns="http://www.w3.org/2000/svg" xmlns:xlink="http://www.w3.org/1999/xlink"> <defs> <circle id="comp-radio-a" cx="11" cy="43" r="10"/> <mask id="comp-radio-b" x="0" y="0" width="20" height="20" fill="#fff"> <use xlink:href="#comp-radio-a"/> </mask> </defs> <g transform="translate(1 1)" fill="none" fill-rule="evenodd"> <path d="M42.649 16.364h54.685V8H38.467v8.364h4.182zm0 33h54.685V41H38.467v8.364h4.182zm0 32h54.685V73H38.467v8.364h4.182z" fill="#D8D8D8"/> <path d="M10.875 21.75c6.006 0 10.875-4.869 10.875-10.875S16.881 0 10.875 0 0 4.869 0 10.875 4.869 21.75 10.875 21.75zm0 32c6.006 0 10.875-4.869 10.875-10.875S16.881 32 10.875 32 0 36.869 0 42.875 4.869 53.75 10.875 53.75z" stroke="#CED2D4" stroke-width="1.901"/> <circle stroke="#CED2D4" stroke-width="1.901" cx="10.875" cy="75.875" r="10.875"/> <use stroke="#FFF" mask="url(#comp-radio-b)" stroke-width="3" fill="#00BCD4" class="docs-svg-primary-light-20-fill" xlink:href="#comp-radio-a"/> </g></svg>
