<?xml version="1.0" encoding="UTF-8" standalone="no"?>
<svg width="121px" height="96px" viewBox="0 0 121 96" version="1.1" xmlns="http://www.w3.org/2000/svg" xmlns:xlink="http://www.w3.org/1999/xlink">
    <title>Select Component</title>
    <desc>Component</desc>
    <defs>
        <rect id="path-1" x="62" y="0" width="58" height="96"></rect>
        <mask id="mask-2" maskContentUnits="userSpaceOnUse" maskUnits="objectBoundingBox" x="0" y="0" width="58" height="96" fill="white">
            <use xlink:href="#path-1"></use>
        </mask>
    </defs>
    <g id="Page-1" stroke="none" stroke-width="1" fill="none" fill-rule="evenodd">
        <g id="Material-Internal-Landing-Page-(Components)" transform="translate(-379.000000, -1066.000000)">
            <g id="select" transform="translate(380.000000, 1066.000000)">
                <path d="M0.536956522,37.98 L97.5182722,37.98" id="underline" stroke="#00BCD4" stroke-width="2.8" stroke-linecap="square"></path>
                <path d="M4.90806452,21.57568 L65.8349534,21.57568" id="text" stroke="#CED2D4" stroke-width="11.708928" stroke-linecap="square"></path>
                <use id="drop-down" stroke="#CED2D4" mask="url(#mask-2)" stroke-width="2.8" fill="#F4F6F7" xlink:href="#path-1"></use>
                <rect fill="#00BCD4" x="62" y="30" width="58" height="17"></rect>
                <path d="M72.6486175,19.8410001 L95.007511,19.8410001 L97.4280111,19.8410001 L97.4280111,15 L95.007511,15 L72.6486175,15 L70.2281175,15 L70.2281175,19.8410001 L72.6486175,19.8410001 Z M72.6486175,40.8410001 L95.007511,40.8410001 L97.4280111,40.8410001 L97.4280111,36 L95.007511,36 L72.6486175,36 L70.2281175,36 L70.2281175,40.8410001 L72.6486175,40.8410001 Z M72.6486175,61.8410001 L95.007511,61.8410001 L97.4280111,61.8410001 L97.4280111,57 L95.007511,57 L72.6486175,57 L70.2281175,57 L70.2281175,61.8410001 L72.6486175,61.8410001 Z M72.6486175,81.8410001 L95.007511,81.8410001 L97.4280111,81.8410001 L97.4280111,77 L95.007511,77 L72.6486175,77 L70.2281175,77 L70.2281175,81.8410001 L72.6486175,81.8410001 Z" id="options" fill="#D8D8D8"></path>
            </g>
        </g>
    </g>
</svg>
