<?xml version="1.0" encoding="UTF-8" standalone="no"?>
<svg width="105px" height="106px" viewBox="0 0 105 106" version="1.1" xmlns="http://www.w3.org/2000/svg" xmlns:xlink="http://www.w3.org/1999/xlink">
    <!-- Generator: Sketch 40.3 (33839) - http://www.bohemiancoding.com/sketch -->
    <title>Toolbar</title>
    <desc>Created with Sketch.</desc>
    <defs></defs>
    <g id="Page-1" stroke="none" stroke-width="1" fill="none" fill-rule="evenodd">
        <g id="Component-Directory" transform="translate(-1198.000000, -1493.000000)">
            <g id="Toolbar" transform="translate(1198.000000, 1493.000000)">
                <path d="M1.819384e-14,8.36582524 C2.17506099e-14,3.74550754 3.73700559,0 8.35995315,0 L96.6400469,0 C101.257121,0 105,3.7334342 105,8.36582524 L105,32 L0,32 L1.819384e-14,8.36582524 Z" id="header" fill="#00BCD4"></path>
                <path d="M69.4987509,12.9689132 L97.538111,12.9689132" id="text" stroke="#FFFFFF" stroke-width="2.35299993" stroke-linecap="square"></path>
                <path d="M7,13.7 L18,13.7 L18,12 L7,12 L7,13.7 Z M7,16.7 L18,16.7 L18,15 L7,15 L7,16.7 Z M7,9 L7,10.7 L18,10.7 L18,9 L7,9 Z" id="menu" fill="#FFFFFF"></path>
                <rect id="card" fill="#F4F6F7" x="0" y="26" width="105" height="80" rx="8.36"></rect>
                <rect id="Rectangle-26" fill="#F4F6F7" x="0" y="26" width="105" height="21"></rect>
            </g>
        </g>
    </g>
</svg>