<?xml version="1.0" encoding="UTF-8" standalone="no"?>
<svg width="1440px" height="481px" viewBox="0 0 1440 481" version="1.1" xmlns="http://www.w3.org/2000/svg" xmlns:xlink="http://www.w3.org/1999/xlink">
    <!-- Generator: Sketch 40.3 (33839) - http://www.bohemiancoding.com/sketch -->
    <title>Desktop HD</title>
    <desc>Created with Sketch.</desc>
    <defs>
        <rect id="path-1" x="-2.13162821e-13" y="8.52651283e-14" width="77" height="31" rx="15.5"></rect>
        <mask id="mask-2" maskContentUnits="userSpaceOnUse" maskUnits="objectBoundingBox" x="0" y="0" width="77" height="31" fill="white">
            <use xlink:href="#path-1"></use>
        </mask>
        <rect id="path-3" x="-1.07291953e-12" y="-9.09494702e-13" width="77" height="31" rx="15.5"></rect>
        <mask id="mask-4" maskContentUnits="userSpaceOnUse" maskUnits="objectBoundingBox" x="0" y="0" width="77" height="31" fill="white">
            <use xlink:href="#path-3"></use>
        </mask>
        <rect id="path-5" x="1.36424205e-12" y="6.82121026e-13" width="77" height="31" rx="15.5"></rect>
        <mask id="mask-6" maskContentUnits="userSpaceOnUse" maskUnits="objectBoundingBox" x="0" y="0" width="77" height="31" fill="white">
            <use xlink:href="#path-5"></use>
        </mask>
        <rect id="path-7" x="-9.09494702e-13" y="4.54747351e-13" width="77" height="31" rx="15.5"></rect>
        <mask id="mask-8" maskContentUnits="userSpaceOnUse" maskUnits="objectBoundingBox" x="0" y="0" width="77" height="31" fill="white">
            <use xlink:href="#path-7"></use>
        </mask>
        <rect id="path-9" x="4.54747351e-13" y="2.27373675e-13" width="77" height="31" rx="15.5"></rect>
        <mask id="mask-10" maskContentUnits="userSpaceOnUse" maskUnits="objectBoundingBox" x="0" y="0" width="77" height="31" fill="white">
            <use xlink:href="#path-9"></use>
        </mask>
    </defs>
    <g id="Page-1" stroke="none" stroke-width="1" fill="none" fill-rule="evenodd">
        <g id="Desktop-HD">
            <g id="Group-2" transform="translate(458.000000, 367.000000)">
                <circle id="Oval" stroke="#FFFFFF" stroke-width="2.4" cx="21" cy="23" r="21"></circle>
                <text id="+" font-family="Roboto-Light, Roboto" font-size="31.3632" font-weight="300" fill="#FFFFFF">
                    <tspan x="12.5106383" y="33.893617">+</tspan>
                </text>
            </g>
            <g id="Group" transform="translate(99.952720, 101.638530) rotate(18.000000) translate(-99.952720, -101.638530) translate(61.452720, 86.138530)">
                <use id="Rectangle-8" stroke="#FFFFFF" mask="url(#mask-2)" stroke-width="4.356" xlink:href="#path-1"></use>
                <ellipse id="Oval-2" fill="#FFFFFF" cx="16.1162791" cy="14.5882353" rx="10.744186" ry="10.9411765"></ellipse>
            </g>
            <g id="Group" transform="translate(187.734688, 377.221776) rotate(-29.000000) translate(-187.734688, -377.221776) translate(149.234688, 361.721776)">
                <use id="Rectangle-8" stroke="#FFFFFF" mask="url(#mask-4)" stroke-width="4.356" xlink:href="#path-3"></use>
                <ellipse id="Oval-2" fill="#FFFFFF" cx="16.1162791" cy="14.5882353" rx="10.744186" ry="10.9411765"></ellipse>
            </g>
            <g id="Group-Copy" transform="translate(1138.945604, 171.808597) rotate(334.000000) translate(-1138.945604, -171.808597) translate(1100.445604, 156.308597)">
                <use id="Rectangle-8" stroke="#FFFFFF" mask="url(#mask-6)" stroke-width="4.356" xlink:href="#path-5"></use>
                <ellipse id="Oval-2" fill="#FFFFFF" cx="16.1162791" cy="14.5882353" rx="10.744186" ry="10.9411765"></ellipse>
            </g>
            <g id="Group-2" transform="translate(1221.547280, 400.000000)">
                <circle id="Oval" stroke="#FFFFFF" stroke-width="2.4" cx="21" cy="23" r="21"></circle>
                <text id="+" font-family="Roboto-Light, Roboto" font-size="31.3632" font-weight="300" fill="#FFFFFF">
                    <tspan x="12.5106383" y="33.893617">+</tspan>
                </text>
            </g>
            <g id="Group-2" transform="translate(1336.547280, 47.000000)">
                <circle id="Oval" stroke="#FFFFFF" stroke-width="2.4" cx="21" cy="23" r="21"></circle>
                <text id="+" font-family="Roboto-Light, Roboto" font-size="31.3632" font-weight="300" fill="#FFFFFF">
                    <tspan x="12.5106383" y="33.893617">+</tspan>
                </text>
            </g>
            <g id="Group-2-Copy" transform="translate(113.547280, 185.000000)">
                <circle id="Oval" stroke="#FFFFFF" stroke-width="2.4" cx="21" cy="23" r="21"></circle>
                <text id="+" font-family="Roboto-Light, Roboto" font-size="31.3632" font-weight="300" fill="#FFFFFF">
                    <tspan x="12.5106383" y="33.893617">+</tspan>
                </text>
            </g>
            <g id="Group-Copy" transform="translate(1021.945604, 368.808597) rotate(386.000000) translate(-1021.945604, -368.808597) translate(983.445604, 353.308597)">
                <use id="Rectangle-8" stroke="#FFFFFF" mask="url(#mask-8)" stroke-width="4.356" fill="#FFFFFF" xlink:href="#path-7"></use>
                <ellipse id="Oval-2" fill="#00BCD4" cx="16.1162791" cy="14.5882353" rx="10.744186" ry="10.9411765"></ellipse>
            </g>
            <g id="Group-Copy" transform="translate(394.044830, 108.267663) rotate(699.000000) translate(-394.044830, -108.267663) translate(355.544830, 92.767663)">
                <use id="Rectangle-8" stroke="#FFFFFF" mask="url(#mask-10)" stroke-width="4.356" fill="#FFFFFF" xlink:href="#path-9"></use>
                <ellipse id="Oval-2" fill="#00BCD4" cx="16.1162791" cy="14.5882353" rx="10.744186" ry="10.9411765"></ellipse>
            </g>
            <g id="ic_menu_black_24px" transform="translate(1246.547280, 238.000000)">
                <g id="Group">
                    <polygon id="Shape" points="0 0 56 0 56 56 0 56"></polygon>
                    <path d="M7,42 L49,42 L49,37.3333333 L7,37.3333333 L7,42 L7,42 Z M7,30.3333333 L49,30.3333333 L49,25.6666667 L7,25.6666667 L7,30.3333333 L7,30.3333333 Z M7,14 L7,18.6666667 L49,18.6666667 L49,14 L7,14 L7,14 Z" id="Shape" fill="#FFFFFF"></path>
                </g>
            </g>
            <g id="ic_menu_black_24px" transform="translate(1014.547280, 38.000000)">
                <g id="Group">
                    <polygon id="Shape" points="0 0 56 0 56 56 0 56"></polygon>
                    <path d="M7,42 L49,42 L49,37.3333333 L7,37.3333333 L7,42 L7,42 Z M7,30.3333333 L49,30.3333333 L49,25.6666667 L7,25.6666667 L7,30.3333333 L7,30.3333333 Z M7,14 L7,18.6666667 L49,18.6666667 L49,14 L7,14 L7,14 Z" id="Shape" fill="#FFFFFF"></path>
                </g>
            </g>
            <g id="ic_menu_black_24px" transform="translate(256.547280, 195.000000)">
                <g id="Group">
                    <polygon id="Shape" points="0 0 56 0 56 56 0 56"></polygon>
                    <path d="M7,42 L49,42 L49,37.3333333 L7,37.3333333 L7,42 L7,42 Z M7,30.3333333 L49,30.3333333 L49,25.6666667 L7,25.6666667 L7,30.3333333 L7,30.3333333 Z M7,14 L7,18.6666667 L49,18.6666667 L49,14 L7,14 L7,14 Z" id="Shape" fill="#FFFFFF"></path>
                </g>
            </g>
        </g>
    </g>
</svg>