<svg width="372" height="271" viewBox="0 0 372 271" xmlns="http://www.w3.org/2000/svg" xmlns:xlink="http://www.w3.org/1999/xlink"><defs><path id="a" d="M0 38h39v39H0z"/><mask id="y" x="0" y="0" width="39" height="39" fill="#fff"><use xlink:href="#a"/></mask><path id="b" d="M37 38h39v39H37z"/><mask id="z" x="0" y="0" width="39" height="39" fill="#fff"><use xlink:href="#b"/></mask><path id="c" d="M0 0h39v39H0z"/><mask id="A" x="0" y="0" width="39" height="39" fill="#fff"><use xlink:href="#c"/></mask><path id="d" d="M37 0h39v39H37z"/><mask id="B" x="0" y="0" width="39" height="39" fill="#fff"><use xlink:href="#d"/></mask><path id="e" d="M75 38h39v39H75z"/><mask id="C" x="0" y="0" width="39" height="39" fill="#fff"><use xlink:href="#e"/></mask><path id="f" d="M38 38h39v39H38z"/><mask id="D" x="0" y="0" width="39" height="39" fill="#fff"><use xlink:href="#f"/></mask><path id="g" d="M0 38h39v39H0z"/><mask id="E" x="0" y="0" width="39" height="39" fill="#fff"><use xlink:href="#g"/></mask><path id="h" d="M0 0h39v39H0z"/><mask id="F" x="0" y="0" width="39" height="39" fill="#fff"><use xlink:href="#h"/></mask><path id="i" d="M75 38h39v39H75z"/><mask id="G" x="0" y="0" width="39" height="39" fill="#fff"><use xlink:href="#i"/></mask><path id="j" d="M38 38h39v39H38z"/><mask id="H" x="0" y="0" width="39" height="39" fill="#fff"><use xlink:href="#j"/></mask><path id="k" d="M38 0h39v39H38z"/><mask id="I" x="0" y="0" width="39" height="39" fill="#fff"><use xlink:href="#k"/></mask><path id="l" d="M0 0h39v39H0z"/><mask id="J" x="0" y="0" width="39" height="39" fill="#fff"><use xlink:href="#l"/></mask><path id="m" d="M0 74h39v39H0z"/><mask id="K" x="0" y="0" width="39" height="39" fill="#fff"><use xlink:href="#m"/></mask><path id="n" d="M38 37h39v39H38z"/><mask id="L" x="0" y="0" width="39" height="39" fill="#fff"><use xlink:href="#n"/></mask><path id="o" d="M0 37h39v39H0z"/><mask id="M" x="0" y="0" width="39" height="39" fill="#fff"><use xlink:href="#o"/></mask><path id="p" d="M0 0h39v39H0z"/><mask id="N" x="0" y="0" width="39" height="39" fill="#fff"><use xlink:href="#p"/></mask><path id="q" d="M75 38h39v39H75z"/><mask id="O" x="0" y="0" width="39" height="39" fill="#fff"><use xlink:href="#q"/></mask><path id="r" d="M38 38h39v39H38z"/><mask id="P" x="0" y="0" width="39" height="39" fill="#fff"><use xlink:href="#r"/></mask><path id="s" d="M0 38h39v39H0z"/><mask id="Q" x="0" y="0" width="39" height="39" fill="#fff"><use xlink:href="#s"/></mask><path id="t" d="M38 0h39v39H38z"/><mask id="R" x="0" y="0" width="39" height="39" fill="#fff"><use xlink:href="#t"/></mask><path id="u" d="M37 75h39v39H37z"/><mask id="S" x="0" y="0" width="39" height="39" fill="#fff"><use xlink:href="#u"/></mask><path id="v" d="M37 37h39v39H37z"/><mask id="T" x="0" y="0" width="39" height="39" fill="#fff"><use xlink:href="#v"/></mask><path id="w" d="M37 0h39v39H37z"/><mask id="U" x="0" y="0" width="39" height="39" fill="#fff"><use xlink:href="#w"/></mask><path id="x" d="M0 0h39v39H0z"/><mask id="V" x="0" y="0" width="39" height="39" fill="#fff"><use xlink:href="#x"/></mask></defs><g stroke="#00BCD4" stroke-width="2.662" fill="none" fill-rule="evenodd"><g transform="translate(7 175)" fill="#E1F7FA"><use mask="url(#y)" xlink:href="#a"/><use mask="url(#z)" xlink:href="#b"/><use mask="url(#A)" xlink:href="#c"/><use mask="url(#B)" xlink:href="#d"/></g><g transform="translate(81 175)" fill="#5CD8E7"><use mask="url(#C)" xlink:href="#e"/><use mask="url(#D)" xlink:href="#f"/><use mask="url(#E)" xlink:href="#g"/><use mask="url(#F)" xlink:href="#h"/></g><g transform="translate(81 63)" fill="#B9EDF3"><use mask="url(#G)" xlink:href="#i"/><use mask="url(#H)" xlink:href="#j"/><use mask="url(#I)" xlink:href="#k"/><use mask="url(#J)" xlink:href="#l"/></g><g transform="translate(237 101)" fill="#E1F7FA"><use mask="url(#K)" xlink:href="#m"/><use mask="url(#L)" xlink:href="#n"/><use mask="url(#M)" xlink:href="#o"/><use mask="url(#N)" xlink:href="#p"/></g><g transform="translate(237 175)" fill="#89E0EB"><use mask="url(#O)" xlink:href="#q"/><use mask="url(#P)" xlink:href="#r"/><use mask="url(#Q)" xlink:href="#s"/><use mask="url(#R)" xlink:href="#t"/></g><g transform="translate(278 13)" fill="#5CD8E7"><use mask="url(#S)" xlink:href="#u"/><use mask="url(#T)" xlink:href="#v"/><use mask="url(#U)" xlink:href="#w"/><use mask="url(#V)" xlink:href="#x"/></g></g></svg>