<svg width="402" height="328" viewBox="0 0 402 328" xmlns="http://www.w3.org/2000/svg" xmlns:xlink="http://www.w3.org/1999/xlink"> <defs> <circle id="sza-b" cx="19.5" cy="19.5" r="19.5"/> <filter x="-50%" y="-50%" width="200%" height="200%" filterUnits="objectBoundingBox" id="sza-a"> <feOffset dy="2" in="SourceAlpha" result="shadowOffsetOuter1"/> <feGaussianBlur stdDeviation=".5" in="shadowOffsetOuter1" result="shadowBlurOuter1"/> <feColorMatrix values="0 0 0 0 0 0 0 0 0 0 0 0 0 0 0 0 0 0 0.115913723 0" in="shadowBlurOuter1"/> </filter> <rect id="sza-d" width="96" height="39" rx="1.331"/> <filter x="-50%" y="-50%" width="200%" height="200%" filterUnits="objectBoundingBox" id="sza-c"> <feOffset dy="2" in="SourceAlpha" result="shadowOffsetOuter1"/> <feGaussianBlur stdDeviation=".5" in="shadowOffsetOuter1" result="shadowBlurOuter1"/> <feColorMatrix values="0 0 0 0 0 0 0 0 0 0 0 0 0 0 0 0 0 0 0.115913723 0" in="shadowBlurOuter1"/> </filter> <rect id="sza-f" width="96" height="39" rx="1.331"/> <filter x="-50%" y="-50%" width="200%" height="200%" filterUnits="objectBoundingBox" id="sza-e"> <feOffset dy="2" in="SourceAlpha" result="shadowOffsetOuter1"/> <feGaussianBlur stdDeviation=".5" in="shadowOffsetOuter1" result="shadowBlurOuter1"/> <feColorMatrix values="0 0 0 0 0 0 0 0 0 0 0 0 0 0 0 0 0 0 0.115913723 0" in="shadowBlurOuter1"/> </filter> <rect id="sza-h" width="43" height="17" rx="8.5"/> <filter x="-50%" y="-50%" width="200%" height="200%" filterUnits="objectBoundingBox" id="sza-g"> <feOffset dy="2" in="SourceAlpha" result="shadowOffsetOuter1"/> <feGaussianBlur stdDeviation=".5" in="shadowOffsetOuter1" result="shadowBlurOuter1"/> <feColorMatrix values="0 0 0 0 0 0 0 0 0 0 0 0 0 0 0 0 0 0 0.12 0" in="shadowBlurOuter1"/> </filter> <path id="sza-j" d="M0 0h156v23H0z"/> <filter x="-50%" y="-50%" width="200%" height="200%" filterUnits="objectBoundingBox" id="sza-i"> <feOffset dy="2" in="SourceAlpha" result="shadowOffsetOuter1"/> <feGaussianBlur stdDeviation=".5" in="shadowOffsetOuter1" result="shadowBlurOuter1"/> <feColorMatrix values="0 0 0 0 0 0 0 0 0 0 0 0 0 0 0 0 0 0 0.12 0" in="shadowBlurOuter1"/> </filter> </defs> <g fill="none" fill-rule="evenodd"> <path d="M231.98 316c-7.168 0-12.98-5.887-12.98-13.147V32.147C219 24.885 224.812 19 231.98 19h141.038C380.188 19 386 24.885 386 32.147v270.706c0 7.26-5.812 13.147-12.982 13.147H231.98zm-.06-257.655h142.043v210.28H231.92V58.345z" stroke="#00BCD4" class="docs-svg-primary-light-20-stroke" stroke-width="1.1" fill="#FFF"/> <path d="M318.45 39.056h-31.953c-1.379 0-2.497-1.132-2.497-2.529 0-1.396 1.118-2.527 2.497-2.527h31.953c1.379 0 2.497 1.13 2.497 2.527 0 1.397-1.118 2.53-2.497 2.53z" fill-opacity=".522" fill="#00BCD4" class="docs-svg-primary-light-20-fill"/> <path d="M312.875 291.471c0 5.783-4.673 10.471-10.438 10.471-5.764 0-10.437-4.688-10.437-10.47 0-5.784 4.673-10.472 10.438-10.472 5.764 0 10.437 4.688 10.437 10.471z" stroke="#00BCD4" class="docs-svg-primary-light-20-stroke" stroke-width="1.1"/> <path fill-opacity=".2" fill="#00BCD4" class="docs-svg-primary-light-20-fill" d="M232 59h142v209H232z"/> <g transform="translate(144 246)"> <use fill="#000" filter="url(#sza-a)" xlink:href="#sza-b"/> <use fill="#89E0EB" class="docs-svg-primary-fill" xlink:href="#sza-b"/> </g> <text aria-hidden="true" font-family="Roboto-Light, Roboto" font-size="29.04" font-weight="300" fill="#FFF" transform="translate(144 246)"> <tspan x="11" y="30">+</tspan> </text> <g transform="translate(8 160)"> <use fill="#000" filter="url(#sza-c)" xlink:href="#sza-d"/> <use fill="#89E0EB" class="docs-svg-primary-fill" xlink:href="#sza-d"/> <rect fill="#FFF" x="30" y="14" width="57" height="10" rx="2.662"/> <ellipse fill="#DDF6F9" cx="16" cy="20" rx="5" ry="5"/> </g> <g transform="translate(48 113)"> <use fill="#000" filter="url(#sza-e)" xlink:href="#sza-f"/> <use fill="#89E0EB" class="docs-svg-primary-fill" xlink:href="#sza-f"/> <rect fill="#FFF" x="33" y="14" width="57" height="10" rx="2.662"/> <ellipse fill="#DDF6F9" cx="14" cy="19" rx="5" ry="5"/> </g> <g transform="translate(147 88)"> <use fill="#000" filter="url(#sza-g)" xlink:href="#sza-h"/> <use fill="#89E0EB" class="docs-svg-primary-fill" xlink:href="#sza-h"/> <circle fill="#FFF" cx="9" cy="8" r="6"/> </g> <g transform="translate(12 55)"> <use fill="#000" filter="url(#sza-i)" xlink:href="#sza-j"/> <use fill="#89E0EB" class="docs-svg-primary-fill" xlink:href="#sza-j"/> </g> <path d="M18 72h15v-2H18v2zm0-4h15v-2H18v2zm0-6v2h15v-2H18z" fill="#FFF"/> <path d="M122 231h75v-4h-75v4zm0-7h75v-4h-75v4zm0-8h75v-4h-75v4zm0-7h75v-4h-75v4zm0-11v4h75v-4h-75z" fill="#89E0EB" class="docs-svg-primary-fill"/> </g></svg>
