<svg width="169" height="83" viewBox="0 0 169 83" xmlns="http://www.w3.org/2000/svg"><title>buttons-category</title><g fill="none" fill-rule="evenodd" opacity=".87"><g transform="translate(0 3)"><circle fill="#00BDD5" class="docs-svg-primary-dark-30-fill docs-svg-primary-dark-30-fill" cx="37.5" cy="37.5" r="37.5"/><text transform="translate(20.552 1.172)" font-size="63.51" font-family="Roboto-Regular, Roboto" fill="#FFF"><tspan x="0" y="59">+</tspan></text></g><g fill="#00BCD4" class="docs-svg-primary-light-20-fill"><path d="M122.301 3.965L119.179.83l-12.375 12.428L94.428.83l-3.122 3.135 12.376 12.427L91.306 28.82l3.122 3.135 12.376-12.428 12.375 12.428 3.122-3.135-12.376-12.428zM166.52 67.29h-13.992v14.05h-4.664V67.29h-13.992v-4.684h13.992V48.555h4.664v14.05h13.992zM114.524 68.956h3.316V55.638c0-1.83-1.492-3.33-3.316-3.33h-13.262v3.33h13.262v13.318zm-16.577 3.33V45.65H94.63v6.659H88v3.33h6.631v16.646c0 1.832 1.492 3.33 3.316 3.33h16.577v6.659h3.316v-6.66h6.63v-3.329H97.948zM136.145 26.12v6.872h6.844l20.185-20.269-6.844-6.872-20.185 20.269zm32.321-18.711a1.83 1.83 0 0 0 0-2.585l-4.27-4.288a1.812 1.812 0 0 0-2.574 0l-3.34 3.354 6.844 6.872 3.34-3.353z"/></g></g></svg>
