<svg width="169" height="102" viewBox="0 0 169 102" xmlns="http://www.w3.org/2000/svg" xmlns:xlink="http://www.w3.org/1999/xlink"> <title>modals-category</title> <defs> <rect id="ccmodals-a" x="29.73" y="16.835" width="114.92" height="70.311" rx="5.433"/> <filter x="-50%" y="-50%" width="200%" height="200%" filterUnits="objectBoundingBox" id="ccmodals-b"> <feOffset dy="4" in="SourceAlpha" result="shadowOffsetOuter1"/> <feGaussianBlur stdDeviation="2" in="shadowOffsetOuter1" result="shadowBlurOuter1"/> <feComposite in="shadowBlurOuter1" in2="SourceAlpha" operator="out" result="shadowBlurOuter1"/> <feColorMatrix values="0 0 0 0 0 0 0 0 0 0 0 0 0 0 0 0 0 0 0.24 0" in="shadowBlurOuter1"/> </filter> <mask id="ccmodals-c" x="0" y="0" width="114.92" height="70.311" fill="#fff"> <use xlink:href="#ccmodals-a"/> </mask> </defs> <g transform="translate(0 -2)" fill="none" fill-rule="evenodd" opacity=".87"> <rect fill="#00BCD4" class="docs-svg-primary-light-20-fill" x="1" y="2" width="167.31" height="100.019" rx="7.92"/> <rect fill="#F4F6F7" y="67.34" width="169" height="34.66" rx="7.92"/> <path d="M60.09 15.844h45.842v-3.921H56.743v3.921h3.347zm0 8.913h45.842v-3.922H56.743v3.922h3.347zm-30.36 3.98c9.334 0 16.9-4.433 16.9-9.902 0-5.47-7.566-9.903-16.9-9.903s-16.9 4.434-16.9 9.903c0 5.47 7.566 9.903 16.9 9.903z" fill="#FFF"/> <rect fill-opacity=".84" fill="#CED2D4" x="1" y="2" width="167.31" height="102" rx="7.92"/> <use fill="#000" filter="url(#ccmodals-b)" xlink:href="#ccmodals-a"/> <use stroke="#00BCD4" class="docs-svg-primary-light-20-stroke" mask="url(#ccmodals-c)" stroke-width="4" fill="#FFF" xlink:href="#ccmodals-a"/> </g></svg>
