<svg version="1" xmlns="http://www.w3.org/2000/svg" width="1029.333" height="1029.333" viewBox="0 0 772.000000 772.000000"><path d="M277.5 38.6c-58.8 21.1-139.2 49.9-178.5 64-39.3 14.1-71.6 25.7-71.7 25.8-.1.1.3 3.5.8 7.6s2.9 25.3 5.4 47c2.4 21.7 9.2 80.9 14.9 131.5 10.3 89.7 25 219.3 30.2 264.5 1.4 12.6 3.1 23 3.7 23.6.7.6 66.9 37.7 147.2 82.4 80.3 44.7 148.2 82.6 150.8 84.2l4.9 2.9 50.1-27.9c27.6-15.4 96.1-53.5 152.2-84.7 56.1-31.2 102.1-56.8 102.2-56.9.1-.1 13.9-118 27.3-233.6 1.7-14.6 3.7-31.9 4.5-38.5.8-6.6 2.4-20.1 3.5-30 1.1-9.9 2.7-23.4 3.5-30 .8-6.6 2.4-20.1 3.5-30 1.1-9.9 2.7-23.4 3.5-30 .8-6.6 2.4-20.1 3.5-30 1.1-9.9 3-25.6 4.1-34.9 1.1-9.2 1.8-17.1 1.5-17.4-.3-.2-39.6-14.4-87.3-31.4C517.7 47.2 419.7 12.2 402.1 5.9c-9-3.2-16.7-5.9-17-5.8-.3.1-48.7 17.4-107.6 38.5zm74.1 156.5c10.4 5 25.9 12.5 34.4 16.6 8.5 4.1 56.7 27.3 107 51.5s91.8 44.2 92.1 44.6c.4.4-18.6 12.4-42.1 26.7-23.6 14.3-42.5 26.3-42.1 26.7.3.4 19.5 9.8 42.6 20.9 23.1 11 42.1 20.2 42.3 20.4.1.1-18.5 11.6-41.5 25.5s-42.4 25.8-43 26.4c-1 .9 8.9 6 41.2 21.5 23.4 11.2 42.5 20.7 42.5 21-.1.3-32.8 20.5-72.8 44.7-71.6 43.5-72.7 44.2-75.7 42.9-1.6-.7-16.3-7.7-32.5-15.5s-71.6-34.5-123-59.2c-51.4-24.8-93.8-45.3-94.2-45.6-.3-.4 18.4-12.4 41.8-26.7 23.3-14.3 42.3-26.2 42.3-26.5 0-.3-19.1-9.7-42.4-21-32.9-15.8-42.2-20.7-41.3-21.6.7-.6 19.9-12.5 42.6-26.4l41.3-25.2-16.8-8.2c-9.2-4.5-28.4-13.8-42.5-20.6-14.2-6.8-25.8-12.7-25.8-13 .1-.3 6-4.1 13.2-8.5 7.3-4.4 39.5-24.3 71.7-44.2 32.2-19.9 59.3-36.2 60.2-36.3.9 0 10.1 4.1 20.5 9.1z"/></svg>