<svg xmlns="http://www.w3.org/2000/svg" width="227" height="32" viewBox="0 0 227 32">
    <g fill="none" fill-rule="nonzero">
        <path fill="#00A8C8" d="M103.044 17.666v11.02h1.786v-4.135h1.9c3.338 0 4.4-1.894 4.4-3.562 0-1.716-1.254-3.323-3.79-3.323h-4.296zm3.937 1.443c1.577 0 2.338.98 2.338 2.02 0 .995-.62 1.947-2.869 1.947h-1.62v-3.967h2.151zm-35.117 7.277a4.503 4.503 0 0 1-2.982.968 4.024 4.024 0 0 1-4.129-4.184 4.01 4.01 0 0 1 4.129-4.163 4.575 4.575 0 0 1 2.98.972l.85-1.38a6.422 6.422 0 0 0-3.745-1.132c-3.38 0-6.124 2.26-6.124 5.703 0 3.37 2.518 5.723 6.124 5.723a7.042 7.042 0 0 0 3.745-1.13l-.848-1.377zm43.367-8.72l-4.427 11.02h1.834l1.181-3.072h4.636l1.183 3.073h1.89l-4.349-11.02h-1.948zm.963 2.003l1.728 4.503h-3.53l1.744-4.503h.058zm24.346-2.002v11.02h7.098v-1.441h-5.312v-3.628h4.552v-1.442h-4.552v-3.067h5.21v-1.442h-6.996zm-9.432 8.413l-5.561-8.414h-2.38v11.02h1.785v-8.89h.04l5.878 8.892h2.063V17.666h-1.786v8.414h-.04zm4.735-8.413v11.02h1.786v-11.02h-1.786zm-55.894-.201c-3.521 0-6.077 2.397-6.077 5.703 0 3.315 2.556 5.72 6.077 5.72 3.516 0 6.065-2.405 6.065-5.72 0-3.306-2.55-5.703-6.065-5.703zm0 9.932a4.222 4.222 0 1 1 4.138-4.23 4.194 4.194 0 0 1-4.137 4.23zm14.082-1.128l-3.477-8.601h-2.515v11.018h1.701v-8.608h.038l3.453 8.608h1.514l3.615-8.676h.036v8.676h1.73V17.669h-2.48l-3.56 8.601h-.055zm55.094 1.348a6.804 6.804 0 0 0 4.06 1.272c2.358 0 3.999-1.158 3.999-3.117.002-1.907-1.837-2.754-3.402-3.486-1.236-.575-2.393-.993-2.393-1.92 0-.893.723-1.464 1.967-1.464a5.099 5.099 0 0 1 2.942.923l.785-1.352a6.863 6.863 0 0 0-3.683-1.012c-2.354 0-3.88 1.177-3.88 2.96 0 1.835 1.792 2.623 3.285 3.305 1.413.65 2.495 1.144 2.495 2.146 0 1.018-.877 1.578-2.168 1.578a5.493 5.493 0 0 1-3.137-1.125l-.87 1.292z"/>
        <path fill="#002C77" d="M157.068 12.527a3.075 3.075 0 0 1-3.162-3.206 3.068 3.068 0 0 1 3.162-3.192 3.487 3.487 0 0 1 2.412.838l.82-1.333a5.524 5.524 0 0 0-3.164-.992c-3.035 0-5.013 2.066-5.013 4.679 0 2.612 1.888 4.693 5.013 4.693h.003a5.712 5.712 0 0 0 3.161-.988l-.814-1.324a3.806 3.806 0 0 1-2.418.825zm-62.371-3.38c1.821-.265 3.133-1.455 3.133-3.309 0-1.124-.828-3.047-3.695-3.047h-4.504v11.02h1.786V4.234h2.284c1.59 0 2.324.756 2.324 1.817 0 1.062-.813 1.814-2.555 1.814h-1.912l4.623 5.948h2.19l-3.674-4.665zm37.451 2.506a6.595 6.595 0 0 0 1.257-3.384h-1.66a4.914 4.914 0 0 1-.71 2.141s-2.616-2.89-3.476-3.85a2.132 2.132 0 0 1-.703-1.424c0-.56.497-1.163 1.467-1.164.863.028 1.69.35 2.344.913l.804-1.315a5.52 5.52 0 0 0-3.252-.983c-2.416 0-3.21 1.451-3.21 2.511a4.024 4.024 0 0 0 1.389 2.62c-1.401.615-2.673 1.631-2.673 3.2 0 1.548 1.042 3.096 3.852 3.096a5.467 5.467 0 0 0 3.428-1.173l.866.97h2.223l-1.946-2.158zm-4.52.939c-1.233 0-2.038-.715-2.038-1.7 0-1.105 1.013-1.724 1.846-2.021l2.556 2.84a3.332 3.332 0 0 1-2.364.88zM81.618 2.79l-4.429 11.02h1.834l1.183-3.072h4.635l1.183 3.073h1.89L83.567 2.79h-1.949zm.962 2.003l1.73 4.503h-3.532l1.744-4.503h.058zM208.948 2.79l-4.427 11.02h1.834l1.183-3.072h4.635l1.183 3.073h1.89L210.898 2.79h-1.949zm.964 2.003l1.729 4.503h-3.532l1.745-4.503h.058zM170.87 2.79v11.02h7.098v-1.442h-5.312V8.742h4.551V7.3h-4.551V4.233h5.21V2.791h-6.996zm17.427 8.414l-5.56-8.414h-2.38v11.02h1.785V4.92h.039l5.88 8.893h2.061V2.79h-1.786v8.414h-.039zm12.615 0l-5.56-8.414h-2.38v11.02h1.785V4.92h.04l5.878 8.893h2.062V2.79h-1.786v8.414h-.039zm24.058 0l-5.56-8.414h-2.38v11.02h1.785V4.92h.04l5.878 8.893h2.062V2.79h-1.786v8.414h-.039zm-62.713-8.413v11.02h6.605v-1.445h-4.82V2.792h-1.785zm-92.88 8.602L65.9 2.793h-2.514V13.81h1.701V5.203h.038l3.452 8.608h1.514l3.615-8.676h.037v8.676h1.729V2.793h-2.48l-3.559 8.601h-.055zm74.724 0l-3.476-8.601h-2.515V13.81h1.701V5.203h.038l3.452 8.608h1.514l3.616-8.676h.036v8.676h1.729V2.793h-2.48l-3.56 8.601h-.055zm-44.439 1.347a6.799 6.799 0 0 0 4.06 1.273c2.359 0 4-1.159 4-3.117.002-1.907-1.838-2.754-3.403-3.485-1.236-.576-2.393-.994-2.393-1.92 0-.894.724-1.465 1.967-1.465a5.093 5.093 0 0 1 2.943.923l.784-1.352a6.863 6.863 0 0 0-3.682-1.012c-2.354 0-3.882 1.177-3.882 2.959 0 1.836 1.794 2.624 3.286 3.306 1.414.65 2.495 1.144 2.495 2.146 0 1.018-.877 1.578-2.168 1.578a5.499 5.499 0 0 1-3.137-1.125l-.87 1.291zm17.773-9.95v4.5h-5.805v-4.5h-1.786v11.02h1.786V8.734h5.805v5.079h1.785V2.792h-1.785z"/>
        <path fill="#A6E2EF" d="M40.89 31.479l-13.63-7.87 13.63-7.868z"/>
        <path fill="#006D9E" d="M13.63 31.479L0 23.609l13.63-7.868z"/>
        <path fill="#00A8C8" d="M27.26 23.609l13.63-7.869V0L13.63 15.74z"/>
        <path fill="#006D9E" d="M54.52 23.609L40.888 15.74l13.63-7.869V23.61z"/>
        <path fill="#00A8C8" d="M40.89 31.479l13.63-7.87-13.63-7.868v15.738zM13.63 0L0 7.87v15.74l13.63-7.871V0z"/>
        <path fill="#002C77" d="M13.63 15.74l13.63-7.87L13.63.002V15.74z"/>
        <path fill="#A6E2EF" d="M13.63 31.479l13.63-7.87-13.63-7.868z"/>
        <path fill="#002C77" d="M40.89 15.74l13.63-7.87L40.89.002V15.74z"/>
    </g>
</svg>
