<svg xmlns="http://www.w3.org/2000/svg" xmlns:xlink="http://www.w3.org/1999/xlink" width="24" height="24" viewBox="0 0 24 24">
    <defs>
        <path id="a" d="M21 1.5H2.995C2.17 1.5 1.5 2.18 1.5 3.014v17.972c0 .834.67 1.514 1.495 1.514H21c.825 0 1.5-.68 1.5-1.514V3.014A1.51 1.51 0 0 0 21 1.5zm-13.153 18H4.734V9.478h3.118V19.5h-.005zM6.29 8.11a1.805 1.805 0 0 1 0-3.61c.993 0 1.804.81 1.804 1.805 0 .998-.806 1.804-1.804 1.804zM19.514 19.5h-3.112v-4.875c0-1.162-.024-2.658-1.618-2.658-1.622 0-1.87 1.266-1.87 2.574V19.5H9.802V9.478h2.986v1.369h.042c.417-.788 1.434-1.617 2.948-1.617 3.15 0 3.736 2.076 3.736 4.776V19.5z"/>
    </defs>
    <g fill="none" fill-rule="evenodd">
        <mask id="b" fill="#fff">
            <use xlink:href="#a"/>
        </mask>
        <use fill="#000" fill-rule="nonzero" xlink:href="#a"/>
        <path fill="#C4C5C5" d="M0 0h24v24H0z" mask="url(#b)"/>
    </g>
</svg>
