<svg xmlns="http://www.w3.org/2000/svg" xmlns:xlink="http://www.w3.org/1999/xlink" width="24" height="24" viewBox="0 0 24 24">
    <defs>
        <path id="a" d="M21.533 7.112c.015.213.015.426.015.64 0 6.502-4.949 13.994-13.995 13.994A13.9 13.9 0 0 1 0 19.538c.396.046.777.061 1.188.061a9.85 9.85 0 0 0 6.106-2.102 4.927 4.927 0 0 1-4.599-3.41c.305.045.61.075.93.075.441 0 .883-.06 1.294-.167A4.92 4.92 0 0 1 .975 9.168v-.061a4.954 4.954 0 0 0 2.223.624 4.915 4.915 0 0 1-2.193-4.096c0-.914.244-1.752.67-2.483A13.981 13.981 0 0 0 11.817 8.3a5.553 5.553 0 0 1-.122-1.126 4.917 4.917 0 0 1 4.92-4.92c1.415 0 2.695.595 3.593 1.554A9.684 9.684 0 0 0 23.33 2.62a4.905 4.905 0 0 1-2.163 2.711A9.86 9.86 0 0 0 24 4.569a10.573 10.573 0 0 1-2.467 2.543z"/>
    </defs>
    <g fill="none" fill-rule="evenodd">
        <mask id="b" fill="#fff">
            <use xlink:href="#a"/>
        </mask>
        <use fill="#000" fill-rule="nonzero" xlink:href="#a"/>
        <path fill="#C4C5C5" d="M0 0h24v24H0z" mask="url(#b)"/>
    </g>
</svg>
