<?xml version="1.0" encoding="UTF-8"?>
<svg width="169px" height="83px" viewBox="0 0 169 83" version="1.1" xmlns="http://www.w3.org/2000/svg" xmlns:xlink="http://www.w3.org/1999/xlink">
    <!-- Generator: Sketch 41.2 (35397) - http://www.bohemiancoding.com/sketch -->
    <title>buttons-category</title>
    <desc>Created with Sketch.</desc>
    <defs></defs>
    <g id="Website" stroke="none" stroke-width="1" fill="none" fill-rule="evenodd" opacity="0.87">
        <g id="Material-components-" transform="translate(-312.000000, -661.000000)">
            <g id="buttons-category" transform="translate(312.000000, 661.000000)">
                <g id="button" transform="translate(0.000000, 3.000000)">
                    <g id="Button-Component">
                        <g id="Page-1">
                            <g id="Material-Internal-Landing-Page-(Components)">
                                <g id="button">
                                    <circle id="oval" fill="#00BDD5" cx="37.5" cy="37.5" r="37.5"></circle>
                                    <g id="+" transform="translate(20.551724, 1.172414)" font-size="63.51048" font-family="Roboto-Regular, Roboto" fill="#FFFFFF" font-weight="normal">
                                        <text>
                                            <tspan x="0" y="59">+</tspan>
                                        </text>
                                    </g>
                                </g>
                            </g>
                        </g>
                    </g>
                </g>
                <g id="icon" transform="translate(88.000000, 0.000000)" fill="#00BCD4">
                    <g id="Icon-Component">
                        <g id="Page-1">
                            <g id="Material-Internal-Landing-Page-(Components)">
                                <g id="icon">
                                    <polygon id="x" points="34.3010204 3.96473214 31.1793914 0.83 18.8035714 13.2577679 6.42775145 0.83 3.30612245 3.96473214 15.6819424 16.3925 3.30612245 28.8202679 6.42775145 31.955 18.8035714 19.5272321 31.1793914 31.955 34.3010204 28.8202679 21.9252004 16.3925"></polygon>
                                    <polygon id="+" points="78.5204082 67.2892857 64.5284257 67.2892857 64.5284257 81.34 59.8644315 81.34 59.8644315 67.2892857 45.872449 67.2892857 45.872449 62.6057143 59.8644315 62.6057143 59.8644315 48.555 64.5284257 48.555 64.5284257 62.6057143 78.5204082 62.6057143"></polygon>
                                    <path d="M26.5241187,68.9560228 L29.8396336,68.9560228 L29.8396336,55.6382954 C29.8396336,53.8071079 28.3476519,52.3088637 26.5241187,52.3088637 L13.2620593,52.3088637 L13.2620593,55.6382954 L26.5241187,55.6382954 L26.5241187,68.9560228 L26.5241187,68.9560228 Z M9.94654452,72.2854546 L9.94654452,45.65 L6.63102968,45.65 L6.63102968,52.3088637 L0,52.3088637 L0,55.6382954 L6.63102968,55.6382954 L6.63102968,72.2854546 C6.63102968,74.1166421 8.12301136,75.6148863 9.94654452,75.6148863 L26.5241187,75.6148863 L26.5241187,82.27375 L29.8396336,82.27375 L29.8396336,75.6148863 L36.4706633,75.6148863 L36.4706633,72.2854546 L9.94654452,72.2854546 L9.94654452,72.2854546 Z" id="crop"></path>
                                    <path d="M48.1454082,26.120017 L48.1454082,32.9925 L54.9891643,32.9925 L75.1736823,12.7232568 L68.3299262,5.85077385 L48.1454082,26.120017 L48.1454082,26.120017 Z M80.466187,7.40853667 C81.1779377,6.69379843 81.1779377,5.53922129 80.466187,4.82448306 L76.1956832,0.536053673 C75.4839326,-0.178684558 74.3341815,-0.178684558 73.6224309,0.536053673 L70.2826779,3.88982537 L77.126434,10.7623084 L80.466187,7.40853667 L80.466187,7.40853667 Z" id="edit"></path>
                                </g>
                            </g>
                        </g>
                    </g>
                </g>
            </g>
        </g>
    </g>
</svg>