<svg width="168" height="77" viewBox="0 0 168 77" xmlns="http://www.w3.org/2000/svg" xmlns:xlink="http://www.w3.org/1999/xlink"><title>form-components</title><defs><path id="a" d="M0 0h19.613v19.516H0z"/><path id="c" d="M0 0h19.613v19.516H0z"/><path id="e" d="M0 0h19.613v19.516H0z"/><ellipse id="g" cx="8.673" cy="8.621" rx="8.673" ry="8.621"/></defs><g fill="none" fill-rule="evenodd" opacity=".87"><path d="M32.035 10h36M32.035 37h36M32.035 65h36" stroke="#CED2D4" stroke-width="7.841"/><g transform="translate(0 1)"><mask id="b" fill="#fff"><use xlink:href="#a"/></mask><g mask="url(#b)" stroke="#CED2D4" stroke-width="3.96"><path d="M0 0h19.613v19.516H0z"/></g></g><g transform="translate(0 27.835)"><mask id="d" fill="#fff"><use xlink:href="#c"/></mask><g mask="url(#d)" stroke="#00BCD4" stroke-width="3.96" fill="#00BDD5"><path d="M0 0h19.613v19.516H0z"/></g></g><g transform="translate(0 55.484)"><mask id="f" fill="#fff"><use xlink:href="#e"/></mask><g mask="url(#f)" stroke="#CED2D4" stroke-width="3.96"><path d="M0 0h19.613v19.516H0z"/></g></g><g><g transform="translate(98 1)"><path d="M35.921 14.106h33.443v-7.21h-36v7.21h2.557zm0 28.449h33.443v-7.21h-36v7.21h2.557zm0 27.586h33.443v-7.21h-36v7.21h2.557z" fill="#D8D8D8"/><path d="M9.432 18.75c5.21 0 9.433-4.197 9.433-9.375S14.642 0 9.432 0C4.223 0 0 4.197 0 9.375s4.223 9.375 9.432 9.375zm0 27.586c5.21 0 9.433-4.197 9.433-9.375 0-5.177-4.223-9.375-9.433-9.375C4.223 27.586 0 31.784 0 36.961c0 5.178 4.223 9.375 9.432 9.375z" stroke="#CED2D4" stroke-width="1.901"/><ellipse stroke="#CED2D4" stroke-width="1.901" cx="9.432" cy="65.409" rx="9.432" ry="9.375"/><g transform="translate(.867 28.448)"><mask id="h" fill="#fff"><use xlink:href="#g"/></mask><g mask="url(#h)" stroke="#FFF" stroke-width="3" fill="#00BCD4"><ellipse cx="8.673" cy="8.621" rx="8.673" ry="8.621"/></g></g></g></g></g></svg>