<svg height="251" viewBox="0 0 402 251" width="402" xmlns="http://www.w3.org/2000/svg" xmlns:xlink="http://www.w3.org/1999/xlink"><defs><rect height="218" id="fac-a" rx="4" width="367"/><mask fill="#fff" height="218" id="fac-d" width="367" x="0" y="0"><use xlink:href="#fac-a"/></mask><rect height="180" id="fac-b" rx="4" width="345"/><mask fill="#fff" height="180" id="fac-e" width="345" x="0" y="0"><use xlink:href="#fac-b"/></mask><linearGradient id="fac-f" x1="0%" x2="0%" y1="31.325%" y2="0%"><stop offset="0%" stop-color="#FFF" stop-opacity=".739"/><stop offset="100%" stop-color="#FFF" stop-opacity="0"/></linearGradient><linearGradient id="fac-g" x1="14.641%" x2="77.092%" y1="0%" y2="79.931%"><stop offset="0%" stop-color="#0CBFD6" class="docs-svg-primary-light-40-stop-color"/><stop offset="100%" stop-color="#05BED5" class="docs-svg-primary-light-30-stop-color" stop-opacity=".152"/></linearGradient><path d="M14.909 96.452c10.762 12.154 26.57 19.829 44.19 19.829 32.426 0 58.714-25.994 58.714-58.058 0-32.065-26.288-58.058-58.715-58.058C26.672.165.384 26.158.384 58.223c0 14.64 5.481 28.016 14.525 38.23z" id="fac-c"/><mask fill="#fff" height="116.116" id="fac-h" width="117.428" x="0" y="0"><use xlink:href="#fac-c"/></mask><mask fill="#fff" height="116.116" id="fac-i" width="117.428" x="0" y="0"><use xlink:href="#fac-c"/></mask></defs><g transform="translate(16 19)" fill="none" fill-rule="evenodd"><use xlink:href="#fac-a" mask="url(#fac-d)" fill="#FFF" stroke="#00BCD4" class="docs-svg-primary-light-20-stroke" stroke-width="2.2"/><path d="M338 18h14v-2h-14v2zm0-4h14v-2h-14v2zm0-6v2h14V8h-14z" fill="#89E0EB" class="docs-svg-primary-fill"/><g transform="translate(12 9)" fill="#89E0EB" class="docs-svg-primary-fill"><ellipse cx="2.471" cy="2.5" rx="2.471" ry="2.5"/><ellipse cx="10.294" cy="2.5" rx="2.471" ry="2.5"/><ellipse cx="18.529" cy="2.5" rx="2.471" ry="2.5"/></g><use xlink:href="#fac-b" mask="url(#fac-e)" fill="#CCF2F6" class="docs-svg-primary-light-60-fill docs-svg-primary-light-20-stroke" stroke="#00BCD4" stroke-width="2.2" stroke-opacity=".449" transform="translate(10 25)"/><path d="M180.976 126.3a5.75 5.75 0 0 1-1.596.786c-.504.214-1.184.39-1.942.242a5.44 5.44 0 0 1-4.35-2.543c-1.601-2.563-.787-5.962 1.82-7.59.33-.206.67-.374 1.02-.505 8.65-4.888 40.212-17.79 40.212-17.79 4.729-1.958 5.137-1.178.924 1.741 0 0-31.25 21.536-35.434 25.213a3.287 3.287 0 0 1-.654.446z" fill="#FFF"/><path d="M22.15 4.955l-3.628 9.452M32.5 9.687l-5.688 8.88M12.323 2.328l-1.92 9.88M.977.624L.624 10.683" stroke="url(#fac-f)" stroke-linecap="square" stroke-width="2.863" transform="translate(181.938 62.12)"/><g transform="translate(123 56)" mask="url(#fac-h)" stroke="url(#fac-g)" stroke-width="13.041"><use xlink:href="#fac-c" mask="url(#fac-i)"/></g></g></svg>
