<svg height="328"viewBox="0 0 402 328"width="402"xmlns="http://www.w3.org/2000/svg"xmlns:xlink="http://www.w3.org/1999/xlink"><defs><path d="M30.567 93.044c2.031.002 5.332.004 7.354.004h268.402A3.672 3.672 0 0 1 310 96.723v77.554a3.681 3.681 0 0 1-3.677 3.675H37.921c-2.03 0-5.33.044-7.354.004 0 0-40.567 3.092-40.567-42.456s40.567-42.456 40.567-42.456z"id="ver-a"/><mask fill="#fff"height="85"id="ver-d"width="320"x="0"y="0"><use xlink:href="#ver-a"/></mask><linearGradient id="ver-e"x1="0%"y1="50%"y2="50%"><stop offset="0%"stop-color="#00BCD4" class="docs-svg-primary-light-20-stop-color"/><stop offset="100%"stop-color="#EEFAFC"/></linearGradient><path d="M45.567 53.044c2.031.002 5.332.004 7.354.004h268.402A3.672 3.672 0 0 1 325 56.723v77.554a3.681 3.681 0 0 1-3.677 3.675H52.921c-2.03 0-5.33.044-7.354.004 0 0-40.567 3.092-40.567-42.456s40.567-42.456 40.567-42.456z"id="ver-b"/><mask fill="#fff"height="85"id="ver-f"width="320"x="0"y="0"><use xlink:href="#ver-b"/></mask><path d="M40.567.044c2.031.002 5.332.004 7.354.004h268.402A3.672 3.672 0 0 1 320 3.723v77.554a3.681 3.681 0 0 1-3.677 3.675H47.921c-2.03 0-5.33.044-7.354.004C40.567 84.956 0 88.048 0 42.5S40.567.044 40.567.044z"id="ver-c"/><mask fill="#fff"height="85"id="ver-g"width="320"x="0"y="0"><use xlink:href="#ver-c"/></mask><linearGradient id="ver-h"x1="3.561%"y1="50%"y2="50%"><stop offset="0%"stop-color="#00BCD4" class="docs-svg-primary-light-20-stop-color"/><stop offset="100%"stop-color="#EEFAFC"/></linearGradient></defs><g fill="none"fill-rule="evenodd"><g transform="rotate(11 15.855 164.657)"><use xlink:href="#ver-a"fill="#FFF"mask="url(#ver-d)"stroke="#00BCD4" class="docs-svg-primary-light-20-stroke"stroke-width="2.529"transform="rotate(40 150 135.5)"/><path d="M45 124h39.506v55H45v-55zm51.519 0h39.506v55H96.519v-55zm51.52 0h39.505v55h-39.506v-55zm52.687 0h39.506v55h-39.506v-55zm51.768 0H292v55h-39.506v-55z"fill="url(#ver-e)"transform="rotate(39 168.5 151.5)"/></g><g transform="rotate(11 -14.609 208.89)"><use xlink:href="#ver-b"fill="#FFF"mask="url(#ver-f)"stroke="#00BCD4" class="docs-svg-primary-light-20-stroke"stroke-width="2.529"transform="rotate(20 165 95.5)"/><path d="M64 74h39.506v55H64V74zm51.519 0h39.506v55h-39.506V74zm51.52 0h39.505v55h-39.506V74zm52.687 0h39.506v55h-39.506V74zm51.768 0H311v55h-39.506V74z"fill="url(#ver-e)"transform="rotate(21 187.5 101.5)"/></g><g transform="rotate(11 -69.536 235.047)"><use xlink:href="#ver-c"fill="#FFF"mask="url(#ver-g)"stroke="#00BCD4" class="docs-svg-primary-light-20-stroke"stroke-width="2.529"/><path d="M43 42c0 6.627-5.373 12-12 12s-12-5.373-12-12 5.373-12 12-12 12 5.373 12 12z"stroke="#00BCD4" class="docs-svg-primary-light-20-stroke"stroke-width="1.264"/><path d="M59 16h39.506v55H59V16zm51.519 0h39.506v55h-39.506V16zm51.52 0h39.505v55h-39.506V16zm52.687 0h39.506v55h-39.506V16zm51.768 0H306v55h-39.506V16z"fill="url(#ver-h)"/></g></g></svg>
