<svg class="site-logo" width="125" viewBox="0 0 506 150" xmlns="http://www.w3.org/2000/svg"><g fill="none" fill-rule="evenodd"><path d="M70.535 5L7 27.681l9.66 84.207 53.875 29.896 54.844-30.299 10.509-84.206L70.535 5zm0 15.251l41.588 88.532H98.339l-8.755-19.999h-35.74l-7.994 19.952-15.015.251 39.7-88.736z" fill="#FFF"/><path fill="#FFF" d="M59.092 76.784h25.352l-13.91-28.088z"/><path d="M70.535 5L7 27.681l9.66 84.207 53.875 29.896 54.844-30.299 10.509-84.206L70.535 5zm0 15.251l41.588 88.532H98.339l-8.755-19.999h-35.74l-7.994 19.952-15.015.251 39.7-88.736z" fill="#FFF"/><path fill="#FFF" d="M59.092 76.784h25.352l-13.91-28.088z"/><path fill="#F2F2F2" d="M70.534 48.696v28.088h13.91z"/><path fill="#F2F2F2" d="M70.535 5v15.251l41.588 88.532H98.339l-8.755-19.999h-19.05v53l54.845-30.299 10.509-84.206z"/><path fill="#FFF" d="M59.092 76.784h11.442V48.696z"/><path fill="#FFF" d="M70.535 5L7 27.681l9.66 84.207 53.875 29.896v-53h-16.69l-7.995 19.952-15.015.251 39.7-88.736zm84.143 101.32V44.788h7.959l37.652 49.569v-49.57h7.53v61.535h-7.958l-37.655-50.005v50.005zm114.243-2.41c-4.96 1.895-10.31 2.84-16.05 2.84-22.287 0-33.434-10.685-33.434-32.059 0-20.224 10.758-30.338 32.274-30.338 6.167 0 11.906.863 17.21 2.586v6.884c-5.304-2.008-10.758-3.013-16.35-3.013-16.779 0-25.17 7.962-25.17 23.881 0 17.068 8.26 25.607 24.784 25.607 2.636 0 5.566-.344 8.78-1.037V78.35h7.956v25.56zm12.695-21.344V44.784h7.956v37.782c0 11.818 5.88 17.73 17.645 17.73 11.76 0 17.643-5.912 17.643-17.73V44.784h7.96v37.782c0 16.127-8.535 24.183-25.603 24.183-17.067 0-25.601-8.056-25.601-24.183m73.364-37.783v55.081h32.19v6.453h-40.146V44.783zm43.678 61.537h-8.26l30.594-69.655 30.59 69.655h-8.82l-7.96-19.366H414.45l2.196-6.452h15.488l-11.487-27.887zm61.318 0V44.788h26.25c11.704 0 17.553 4.919 17.553 14.759 0 8.002-5.717 13.93-17.166 17.77l21.127 29.005h-10.504l-19.572-27.668v-5.207c11.76-1.87 17.643-6.383 17.643-13.557 0-5.677-3.274-8.518-9.816-8.518h-17.556v54.95h-7.96z"/></g></svg>