<svg width="402" height="251" viewBox="0 0 402 251" xmlns="http://www.w3.org/2000/svg" xmlns:xlink="http://www.w3.org/1999/xlink"><defs><rect id="a" width="367" height="218" rx="4"/><mask id="d" x="0" y="0" width="367" height="218" fill="#fff"><use xlink:href="#a"/></mask><rect id="b" width="345" height="180" rx="4"/><mask id="e" x="0" y="0" width="345" height="180" fill="#fff"><use xlink:href="#b"/></mask><linearGradient x1="0%" y1="31.325%" x2="0%" y2="0%" id="f"><stop stop-color="#FFF" stop-opacity=".739" offset="0%"/><stop stop-color="#FFF" stop-opacity="0" offset="100%"/></linearGradient><linearGradient x1="14.641%" y1="0%" x2="77.092%" y2="79.931%" id="g"><stop stop-color="#0CBFD6" offset="0%"/><stop stop-color="#05BED5" stop-opacity=".152" offset="100%"/></linearGradient><path d="M14.909 96.452c10.762 12.154 26.57 19.829 44.19 19.829 32.426 0 58.714-25.994 58.714-58.058 0-32.065-26.288-58.058-58.715-58.058C26.672.165.384 26.158.384 58.223c0 14.64 5.481 28.016 14.525 38.23z" id="c"/><mask id="h" x="0" y="0" width="117.428" height="116.116" fill="#fff"><use xlink:href="#c"/></mask><mask id="i" x="0" y="0" width="117.428" height="116.116" fill="#fff"><use xlink:href="#c"/></mask></defs><g transform="translate(16 19)" fill="none" fill-rule="evenodd"><use stroke="#00BCD4" mask="url(#d)" stroke-width="2.2" fill="#FFF" xlink:href="#a"/><path d="M338 18h14v-2h-14v2zm0-4h14v-2h-14v2zm0-6v2h14V8h-14z" fill="#89E0EB"/><g transform="translate(12 9)" fill="#89E0EB"><ellipse cx="2.471" cy="2.5" rx="2.471" ry="2.5"/><ellipse cx="10.294" cy="2.5" rx="2.471" ry="2.5"/><ellipse cx="18.529" cy="2.5" rx="2.471" ry="2.5"/></g><use mask="url(#e)" xlink:href="#b" transform="translate(10 25)" stroke="#00BCD4" stroke-opacity=".449" stroke-width="2.2" fill="#CCF2F6"/><path d="M180.976 126.3a5.75 5.75 0 0 1-1.596.786c-.504.214-1.184.39-1.942.242a5.44 5.44 0 0 1-4.35-2.543c-1.601-2.563-.787-5.962 1.82-7.59.33-.206.67-.374 1.02-.505 8.65-4.888 40.212-17.79 40.212-17.79 4.729-1.958 5.137-1.178.924 1.741 0 0-31.25 21.536-35.434 25.213a3.287 3.287 0 0 1-.654.446z" fill="#FFF"/><path d="M22.15 4.955l-3.628 9.452M32.5 9.687l-5.688 8.88M12.323 2.328l-1.92 9.88M.977.624L.624 10.683" transform="translate(181.938 62.12)" stroke="url(#f)" stroke-width="2.863" stroke-linecap="square"/><g stroke="url(#g)" mask="url(#h)" stroke-width="13.041" transform="translate(123 56)"><use mask="url(#i)" xlink:href="#c"/></g></g></svg>