<svg width="1440" height="481" viewBox="0 0 1440 481" xmlns="http://www.w3.org/2000/svg" xmlns:xlink="http://www.w3.org/1999/xlink"><defs><rect id="a" width="77" height="31" rx="15.5"/><mask id="f" x="0" y="0" width="77" height="31" fill="#fff"><use xlink:href="#a"/></mask><rect id="b" width="77" height="31" rx="15.5"/><mask id="g" x="0" y="0" width="77" height="31" fill="#fff"><use xlink:href="#b"/></mask><rect id="c" width="77" height="31" rx="15.5"/><mask id="h" x="0" y="0" width="77" height="31" fill="#fff"><use xlink:href="#c"/></mask><rect id="d" width="77" height="31" rx="15.5"/><mask id="i" x="0" y="0" width="77" height="31" fill="#fff"><use xlink:href="#d"/></mask><rect id="e" width="77" height="31" rx="15.5"/><mask id="j" x="0" y="0" width="77" height="31" fill="#fff"><use xlink:href="#e"/></mask></defs><g fill="none" fill-rule="evenodd"><g transform="translate(458 367)"><circle stroke="#FFF" stroke-width="2.4" cx="21" cy="23" r="21"/><text font-family="Roboto-Light, Roboto" font-size="31.363" font-weight="300" fill="#FFF"><tspan x="12.511" y="33.894">+</tspan></text></g><g transform="rotate(18 -202.702 252.568)"><use stroke="#FFF" mask="url(#f)" stroke-width="4.356" xlink:href="#a"/><ellipse fill="#FFF" cx="16.116" cy="14.588" rx="10.744" ry="10.941"/></g><g transform="rotate(-29 812.455 -92.163)"><use stroke="#FFF" mask="url(#g)" stroke-width="4.356" xlink:href="#b"/><ellipse fill="#FFF" cx="16.116" cy="14.588" rx="10.744" ry="10.941"/></g><g transform="rotate(-26 927.246 -2289.622)"><use stroke="#FFF" mask="url(#h)" stroke-width="4.356" xlink:href="#c"/><ellipse fill="#FFF" cx="16.116" cy="14.588" rx="10.744" ry="10.941"/></g><g transform="translate(1221.547 400)"><circle stroke="#FFF" stroke-width="2.4" cx="21" cy="23" r="21"/><text font-family="Roboto-Light, Roboto" font-size="31.363" font-weight="300" fill="#FFF"><tspan x="12.511" y="33.894">+</tspan></text></g><g transform="translate(1336.547 47)"><circle stroke="#FFF" stroke-width="2.4" cx="21" cy="23" r="21"/><text font-family="Roboto-Light, Roboto" font-size="31.363" font-weight="300" fill="#FFF"><tspan x="12.511" y="33.894">+</tspan></text></g><g transform="translate(113.547 185)"><circle stroke="#FFF" stroke-width="2.4" cx="21" cy="23" r="21"/><text font-family="Roboto-Light, Roboto" font-size="31.363" font-weight="300" fill="#FFF"><tspan x="12.511" y="33.894">+</tspan></text></g><g transform="rotate(26 -234.951 2322.04)"><use stroke="#FFF" mask="url(#i)" stroke-width="4.356" fill="#FFF" xlink:href="#d"/><ellipse fill="#00BCD4" cx="16.116" cy="14.588" rx="10.744" ry="10.941"/></g><g transform="rotate(-21 466.537 -897.29)"><use stroke="#FFF" mask="url(#j)" stroke-width="4.356" fill="#FFF" xlink:href="#e"/><ellipse fill="#00BCD4" cx="16.116" cy="14.588" rx="10.744" ry="10.941"/></g><path d="M1246.547 238h56v56h-56z"/><path d="M1253.547 280h42v-4.667h-42V280zm0-11.667h42v-4.666h-42v4.666zm0-16.333v4.667h42V252h-42z" fill="#FFF"/><path d="M1014.547 38h56v56h-56z"/><path d="M1021.547 80h42v-4.667h-42V80zm0-11.667h42v-4.666h-42v4.666zm0-16.333v4.667h42V52h-42z" fill="#FFF"/><path d="M256.547 195h56v56h-56z"/><path d="M263.547 237h42v-4.667h-42V237zm0-11.667h42v-4.666h-42v4.666zm0-16.333v4.667h42V209h-42z" fill="#FFF"/></g></svg>