<?xml version="1.0" encoding="UTF-8" standalone="no"?>
<svg width="402px" height="328px" viewBox="0 0 402 328" version="1.1" xmlns="http://www.w3.org/2000/svg" xmlns:xlink="http://www.w3.org/1999/xlink">
    <!-- Generator: Sketch 40.3 (33839) - http://www.bohemiancoding.com/sketch -->
    <title>Sprintzerotoapp</title>
    <desc>Created with Sketch.</desc>
    <defs>
        <circle id="path-1" cx="19.5" cy="19.5" r="19.5"></circle>
        <filter x="-50%" y="-50%" width="200%" height="200%" filterUnits="objectBoundingBox" id="filter-2">
            <feOffset dx="0" dy="2" in="SourceAlpha" result="shadowOffsetOuter1"></feOffset>
            <feGaussianBlur stdDeviation="0.5" in="shadowOffsetOuter1" result="shadowBlurOuter1"></feGaussianBlur>
            <feColorMatrix values="0 0 0 0 0   0 0 0 0 0   0 0 0 0 0  0 0 0 0.115913723 0" type="matrix" in="shadowBlurOuter1"></feColorMatrix>
        </filter>
        <rect id="path-3" x="0" y="0" width="96" height="39" rx="1.331"></rect>
        <filter x="-50%" y="-50%" width="200%" height="200%" filterUnits="objectBoundingBox" id="filter-4">
            <feOffset dx="0" dy="2" in="SourceAlpha" result="shadowOffsetOuter1"></feOffset>
            <feGaussianBlur stdDeviation="0.5" in="shadowOffsetOuter1" result="shadowBlurOuter1"></feGaussianBlur>
            <feColorMatrix values="0 0 0 0 0   0 0 0 0 0   0 0 0 0 0  0 0 0 0.115913723 0" type="matrix" in="shadowBlurOuter1"></feColorMatrix>
        </filter>
        <rect id="path-5" x="0" y="0" width="96" height="39" rx="1.331"></rect>
        <filter x="-50%" y="-50%" width="200%" height="200%" filterUnits="objectBoundingBox" id="filter-6">
            <feOffset dx="0" dy="2" in="SourceAlpha" result="shadowOffsetOuter1"></feOffset>
            <feGaussianBlur stdDeviation="0.5" in="shadowOffsetOuter1" result="shadowBlurOuter1"></feGaussianBlur>
            <feColorMatrix values="0 0 0 0 0   0 0 0 0 0   0 0 0 0 0  0 0 0 0.115913723 0" type="matrix" in="shadowBlurOuter1"></feColorMatrix>
        </filter>
        <rect id="path-7" x="0" y="0" width="43" height="17" rx="8.5"></rect>
        <filter x="-50%" y="-50%" width="200%" height="200%" filterUnits="objectBoundingBox" id="filter-8">
            <feOffset dx="0" dy="2" in="SourceAlpha" result="shadowOffsetOuter1"></feOffset>
            <feGaussianBlur stdDeviation="0.5" in="shadowOffsetOuter1" result="shadowBlurOuter1"></feGaussianBlur>
            <feColorMatrix values="0 0 0 0 0   0 0 0 0 0   0 0 0 0 0  0 0 0 0.12 0" type="matrix" in="shadowBlurOuter1"></feColorMatrix>
        </filter>
        <rect id="path-9" x="0" y="0" width="156" height="23"></rect>
        <filter x="-50%" y="-50%" width="200%" height="200%" filterUnits="objectBoundingBox" id="filter-10">
            <feOffset dx="0" dy="2" in="SourceAlpha" result="shadowOffsetOuter1"></feOffset>
            <feGaussianBlur stdDeviation="0.5" in="shadowOffsetOuter1" result="shadowBlurOuter1"></feGaussianBlur>
            <feColorMatrix values="0 0 0 0 0   0 0 0 0 0   0 0 0 0 0  0 0 0 0.12 0" type="matrix" in="shadowBlurOuter1"></feColorMatrix>
        </filter>
    </defs>
    <g id="Page-1" stroke="none" stroke-width="1" fill="none" fill-rule="evenodd">
        <g id="Sprintzerotoapp">
            <g id="zerotoapp" transform="translate(8.000000, 19.000000)">
                <g id="iphone" transform="translate(211.000000, 0.000000)">
                    <path d="M12.9800882,297 C5.81187679,297 0,291.113482 0,283.85321 L0,13.1467899 C0,5.8847702 5.81187679,0 12.9800882,0 L154.018186,0 C161.188123,0 167,5.8847702 167,13.1467899 L167,283.85321 C167,291.113482 161.188123,297 154.018186,297 L12.9800882,297 Z M12.9197528,39.3448346 L154.963207,39.3448346 L154.963207,249.624791 L12.9197528,249.624791 L12.9197528,39.3448346 Z" id="iPhone-Outline-Copy-2" stroke="#00BCD4" stroke-width="1.0999999" fill="#FFFFFF"></path>
                    <path d="M99.4502103,20.0563232 L67.4969673,20.0563232 C66.1181996,20.0563232 65,18.9237627 65,17.5272877 C65,16.1308127 66.1181996,15 67.4969673,15 L99.4502103,15 C100.828978,15 101.947178,16.1308127 101.947178,17.5272877 C101.947178,18.9237627 100.828978,20.0563232 99.4502103,20.0563232 L99.4502103,20.0563232 Z" id="speaker" fill-opacity="0.521710824" fill="#00BCD4"></path>
                    <path d="M93.875,272.471154 C93.875,278.253899 89.2016598,282.942308 83.4375,282.942308 C77.6733402,282.942308 73,278.253899 73,272.471154 C73,266.688409 77.6733402,262 83.4375,262 C89.2016598,262 93.875,266.688409 93.875,272.471154 L93.875,272.471154 Z" id="home-button" stroke="#00BCD4" stroke-width="1.1"></path>
                    <rect id="screen" fill-opacity="0.2" fill="#00BCD4" x="13" y="40" width="142" height="209"></rect>
                </g>
                <g id="fab" transform="translate(136.000000, 227.000000)">
                    <g id="button">
                        <use fill="black" fill-opacity="1" filter="url(#filter-2)" xlink:href="#path-1"></use>
                        <use fill="#89E0EB" fill-rule="evenodd" xlink:href="#path-1"></use>
                    </g>
                    <text id="+" font-family="Roboto-Light, Roboto" font-size="29.04" font-weight="300" fill="#FFFFFF">
                        <tspan x="11" y="30">+</tspan>
                    </text>
                </g>
                <g id="card" transform="translate(0.000000, 141.000000)">
                    <g>
                        <use fill="black" fill-opacity="1" filter="url(#filter-4)" xlink:href="#path-3"></use>
                        <use fill="#89E0EB" fill-rule="evenodd" xlink:href="#path-3"></use>
                    </g>
                    <rect id="text" fill="#FFFFFF" x="30" y="14" width="57" height="10" rx="2.662"></rect>
                    <ellipse id="oval" fill="#DDF6F9" cx="16" cy="20" rx="5" ry="5"></ellipse>
                </g>
                <g id="card" transform="translate(40.000000, 94.000000)">
                    <g>
                        <use fill="black" fill-opacity="1" filter="url(#filter-6)" xlink:href="#path-5"></use>
                        <use fill="#89E0EB" fill-rule="evenodd" xlink:href="#path-5"></use>
                    </g>
                    <rect id="text" fill="#FFFFFF" x="33" y="14" width="57" height="10" rx="2.662"></rect>
                    <ellipse id="oval" fill="#DDF6F9" cx="14" cy="19" rx="5" ry="5"></ellipse>
                </g>
                <g id="toggle" transform="translate(139.000000, 69.000000)">
                    <g>
                        <use fill="black" fill-opacity="1" filter="url(#filter-8)" xlink:href="#path-7"></use>
                        <use fill="#89E0EB" fill-rule="evenodd" xlink:href="#path-7"></use>
                    </g>
                    <circle id="slider" fill="#FFFFFF" cx="9" cy="8" r="6"></circle>
                </g>
                <g id="menu" transform="translate(4.000000, 36.000000)">
                    <g id="toolbar">
                        <use fill="black" fill-opacity="1" filter="url(#filter-10)" xlink:href="#path-9"></use>
                        <use fill="#89E0EB" fill-rule="evenodd" xlink:href="#path-9"></use>
                    </g>
                    <path d="M6,17 L21,17 L21,15 L6,15 L6,17 Z M6,13 L21,13 L21,11 L6,11 L6,13 Z M6,7 L6,9 L21,9 L21,7 L6,7 Z" fill="#FFFFFF"></path>
                </g>
                <g id="text" transform="translate(114.000000, 179.000000)" fill="#89E0EB">
                    <path d="M0,33 L75,33 L75,29 L0,29 L0,33 Z M0,26 L75,26 L75,22 L0,22 L0,26 Z M0,18 L75,18 L75,14 L0,14 L0,18 Z M0,11 L75,11 L75,7 L0,7 L0,11 Z M0,0 L0,4 L75,4 L75,0 L0,0 Z"></path>
                </g>
            </g>
        </g>
    </g>
</svg>