<svg width="100" height="100" viewBox="0 0 105 106" xmlns="http://www.w3.org/2000/svg"><title>datepicker</title><g fill="none" fill-rule="evenodd"><path d="M0 8.367C0 3.747 3.737 0 8.36 0h88.28c4.617 0 8.36 3.742 8.36 8.367V26.91H0V8.366z" fill="#00BCD4" class="docs-svg-primary-light-20-fill"/><path d="M15.15 13H50.41" stroke="#FFF" stroke-width="4" stroke-linecap="square"/><path d="M0 26h105v71.646c0 4.614-3.737 8.354-8.36 8.354H8.36C3.743 106 0 102.25 0 97.646V26z" fill="#F4F6F7"/><g transform="translate(11 35)"><circle stroke="#CED2D4" cx="2.5" cy="2.5" r="2.5"/><circle stroke="#CED2D4" cx="15.5" cy="2.5" r="2.5"/><circle stroke="#CED2D4" cx="28.5" cy="2.5" r="2.5"/><circle stroke="#CED2D4" cx="41.5" cy="2.5" r="2.5"/><circle stroke="#CED2D4" cx="54.5" cy="2.5" r="2.5"/><circle stroke="#CED2D4" cx="67.5" cy="2.5" r="2.5"/><circle stroke="#CED2D4" cx="80.5" cy="2.5" r="2.5"/><circle fill="#CED2D4" cx="2.5" cy="18.5" r="2.5"/><circle fill="#CED2D4" cx="15.5" cy="18.5" r="2.5"/><circle fill="#CED2D4" cx="28.5" cy="18.5" r="2.5"/><circle fill="#CED2D4" cx="41.5" cy="18.5" r="2.5"/><circle fill="#CED2D4" cx="54.5" cy="18.5" r="2.5"/><circle fill="#CED2D4" cx="67.5" cy="18.5" r="2.5"/><circle fill="#CED2D4" cx="80.5" cy="18.5" r="2.5"/><circle fill="#CED2D4" cx="2.5" cy="30.5" r="2.5"/><circle fill="#CED2D4" cx="15.5" cy="30.5" r="2.5"/><circle fill="#CED2D4" cx="28.5" cy="30.5" r="2.5"/><circle fill="#CED2D4" cx="41.5" cy="30.5" r="2.5"/><circle fill="#CED2D4" cx="54.5" cy="30.5" r="2.5"/><circle fill="#00BCD4" class="docs-svg-primary-light-20-fill" cx="68.5" cy="30.5" r="4.5"/><circle fill="#CED2D4" cx="80.5" cy="30.5" r="2.5"/><circle fill="#CED2D4" cx="2.5" cy="42.5" r="2.5"/><circle fill="#CED2D4" cx="15.5" cy="42.5" r="2.5"/><circle fill="#CED2D4" cx="28.5" cy="42.5" r="2.5"/><circle fill="#CED2D4" cx="41.5" cy="42.5" r="2.5"/><circle fill="#CED2D4" cx="54.5" cy="42.5" r="2.5"/><circle fill="#CED2D4" cx="67.5" cy="42.5" r="2.5"/><circle fill="#CED2D4" cx="80.5" cy="42.5" r="2.5"/><circle fill="#CED2D4" cx="2.5" cy="54.5" r="2.5"/><circle fill="#CED2D4" cx="15.5" cy="54.5" r="2.5"/><circle fill="#CED2D4" cx="28.5" cy="54.5" r="2.5"/><circle fill="#CED2D4" cx="41.5" cy="54.5" r="2.5"/><circle fill="#CED2D4" cx="54.5" cy="54.5" r="2.5"/><circle fill="#CED2D4" cx="67.5" cy="54.5" r="2.5"/><circle fill="#CED2D4" cx="80.5" cy="54.5" r="2.5"/></g></g></svg>
