<svg width="100" height="100" viewBox="0 0 98 112" xmlns="http://www.w3.org/2000/svg"><title>icon</title><g fill="none" fill-rule="evenodd"><path d="M49 63h56v56H49z"/><path d="M88.667 70h-28C58.077 70 56 72.1 56 74.667v32.666A4.665 4.665 0 0 0 60.667 112h32.666A4.68 4.68 0 0 0 98 107.333v-28L88.667 70zM77 107.333a6.99 6.99 0 0 1-7-7c0-3.873 3.127-7 7-7s7 3.127 7 7c0 3.874-3.127 7-7 7zM84 84H60.667v-9.333H84V84zM23.01 110.925l-3.336-3.016C7.824 97.239 0 90.202 0 81.566 0 74.529 5.569 69 12.656 69c4.004 0 7.846 1.85 10.354 4.775C25.52 70.851 29.361 69 33.365 69c7.087 0 12.656 5.529 12.656 12.566 0 8.636-7.824 15.673-19.674 26.366l-3.337 2.993z" fill="#00BCD4" class="docs-svg-primary-light-20-fill"/><g><path d="M23 0h57v57H23z"/><path d="M37.25 42.75a2.382 2.382 0 0 0 2.375 2.375H42v8.313A3.558 3.558 0 0 0 45.563 57a3.558 3.558 0 0 0 3.562-3.563v-8.312h4.75v8.313A3.558 3.558 0 0 0 57.438 57 3.558 3.558 0 0 0 61 53.437v-8.312h2.375a2.382 2.382 0 0 0 2.375-2.375V19h-28.5v23.75zM31.312 19a3.558 3.558 0 0 0-3.562 3.563v16.625a3.558 3.558 0 0 0 3.563 3.562 3.558 3.558 0 0 0 3.562-3.563V22.564A3.558 3.558 0 0 0 31.312 19zm40.376 0a3.558 3.558 0 0 0-3.563 3.563v16.625a3.558 3.558 0 0 0 3.563 3.562 3.558 3.558 0 0 0 3.562-3.563V22.564A3.558 3.558 0 0 0 71.687 19zM59.883 5.13l3.087-3.087a1.176 1.176 0 0 0 0-1.687 1.176 1.176 0 0 0-1.686 0L57.77 3.871a13.869 13.869 0 0 0-6.27-1.496c-2.28 0-4.418.546-6.317 1.496L41.643.356a1.176 1.176 0 0 0-1.685 0 1.176 1.176 0 0 0 0 1.687l3.11 3.11c-3.514 2.59-5.818 6.746-5.818 11.472h28.5c0-4.726-2.304-8.906-5.866-11.495zM46.75 11.875h-2.375V9.5h2.375v2.375zm11.875 0H56.25V9.5h2.375v2.375z" fill="#00BCD4" class="docs-svg-primary-light-20-fill"/></g></g></svg>
