<svg width="98" height="100" viewBox="0 0 98 100" xmlns="http://www.w3.org/2000/svg"><path d="M41.5 4.777L37.723 1 22.75 15.973 7.777 1 4 4.777 18.973 19.75 4 34.723 7.777 38.5 22.75 23.527 37.723 38.5l3.777-3.777L26.527 19.75zM95 81.071H78.071V98H72.43V81.071H55.5V75.43h16.929V58.5h5.642v16.929H95zM32.09 83.08h4.012V67.034a4.023 4.023 0 0 0-4.011-4.011H16.045v4.011h16.046V83.08zm-20.056 4.01V55H8.023v8.023H0v4.011h8.023v20.057a4.023 4.023 0 0 0 4.011 4.011h20.057v8.023h4.011v-8.023h8.023v-4.011h-32.09zM58.25 31.47v8.28h8.28l24.42-24.42-8.28-8.28-24.42 24.42zM97.354 8.926a2.199 2.199 0 0 0 0-3.113L92.187.646a2.199 2.199 0 0 0-3.113 0l-4.04 4.04 8.28 8.28 4.04-4.04z" fill="#00BCD4" fill-rule="evenodd"/></svg>
