<?xml version="1.0" encoding="UTF-8" standalone="no"?>
<svg width="98px" height="112px" viewBox="0 0 98 112" version="1.1" xmlns="http://www.w3.org/2000/svg" xmlns:xlink="http://www.w3.org/1999/xlink">
    <!-- Generator: Sketch 40.3 (33839) - http://www.bohemiancoding.com/sketch -->
    <title>icon</title>
    <desc>Created with Sketch.</desc>
    <defs></defs>
    <g id="Page-1" stroke="none" stroke-width="1" fill="none" fill-rule="evenodd">
        <g id="Component-Directory" transform="translate(-109.000000, -2785.000000)">
            <g id="icon" transform="translate(109.000000, 2785.000000)">
                <g id="ic_save_black_24px" transform="translate(49.000000, 63.000000)">
                    <g id="Group">
                        <polygon id="Shape" points="0 0 56 0 56 56 0 56"></polygon>
                        <path d="M39.6666667,7 L11.6666667,7 C9.07666667,7 7,9.1 7,11.6666667 L7,44.3333333 C7,46.9 9.07666667,49 11.6666667,49 L44.3333333,49 C46.9,49 49,46.9 49,44.3333333 L49,16.3333333 L39.6666667,7 L39.6666667,7 Z M28,44.3333333 C24.1266667,44.3333333 21,41.2066667 21,37.3333333 C21,33.46 24.1266667,30.3333333 28,30.3333333 C31.8733333,30.3333333 35,33.46 35,37.3333333 C35,41.2066667 31.8733333,44.3333333 28,44.3333333 L28,44.3333333 Z M35,21 L11.6666667,21 L11.6666667,11.6666667 L35,11.6666667 L35,21 L35,21 Z" id="Shape" fill="#00BCD4"></path>
                    </g>
                </g>
                <g id="ic_favorite_black_24px" transform="translate(0.000000, 69.000000)" fill="#00BCD4">
                    <g id="Group">
                        <path d="M23.0104167,41.9246528 L19.6739063,38.9088194 C7.82354167,28.2391667 0,21.2022222 0,12.5659722 C0,5.52902778 5.56852083,0 12.6557292,0 C16.6595417,0 20.5022813,1.850625 23.0104167,4.77506944 C25.5185521,1.850625 29.3612917,0 33.3651042,0 C40.4523125,0 46.0208333,5.52902778 46.0208333,12.5659722 C46.0208333,21.2022222 38.1972917,28.2391667 26.3469271,38.9316667 L23.0104167,41.9246528 L23.0104167,41.9246528 Z" id="Shape"></path>
                    </g>
                </g>
                <g id="ic_android_black_24px" transform="translate(23.000000, 0.000000)">
                    <g id="Group">
                        <polygon id="Shape" points="0 0 57 0 57 57 0 57"></polygon>
                        <path d="M14.25,42.75 C14.25,44.05625 15.31875,45.125 16.625,45.125 L19,45.125 L19,53.4375 C19,55.40875 20.59125,57 22.5625,57 C24.53375,57 26.125,55.40875 26.125,53.4375 L26.125,45.125 L30.875,45.125 L30.875,53.4375 C30.875,55.40875 32.46625,57 34.4375,57 C36.40875,57 38,55.40875 38,53.4375 L38,45.125 L40.375,45.125 C41.68125,45.125 42.75,44.05625 42.75,42.75 L42.75,19 L14.25,19 L14.25,42.75 L14.25,42.75 Z M8.3125,19 C6.34125,19 4.75,20.59125 4.75,22.5625 L4.75,39.1875 C4.75,41.15875 6.34125,42.75 8.3125,42.75 C10.28375,42.75 11.875,41.15875 11.875,39.1875 L11.875,22.5625 C11.875,20.59125 10.28375,19 8.3125,19 L8.3125,19 Z M48.6875,19 C46.71625,19 45.125,20.59125 45.125,22.5625 L45.125,39.1875 C45.125,41.15875 46.71625,42.75 48.6875,42.75 C50.65875,42.75 52.25,41.15875 52.25,39.1875 L52.25,22.5625 C52.25,20.59125 50.65875,19 48.6875,19 L48.6875,19 Z M36.88375,5.13 L39.97125,2.0425 C40.44625,1.5675 40.44625,0.83125 39.97125,0.35625 C39.49625,-0.11875 38.76,-0.11875 38.285,0.35625 L34.77,3.87125 C32.89375,2.92125 30.75625,2.375 28.5,2.375 C26.22,2.375 24.0825,2.92125 22.1825,3.87125 L18.64375,0.35625 C18.16875,-0.11875 17.4325,-0.11875 16.9575,0.35625 C16.4825,0.83125 16.4825,1.5675 16.9575,2.0425 L20.06875,5.15375 C16.55375,7.7425 14.25,11.89875 14.25,16.625 L42.75,16.625 C42.75,11.89875 40.44625,7.71875 36.88375,5.13 L36.88375,5.13 Z M23.75,11.875 L21.375,11.875 L21.375,9.5 L23.75,9.5 L23.75,11.875 L23.75,11.875 Z M35.625,11.875 L33.25,11.875 L33.25,9.5 L35.625,9.5 L35.625,11.875 L35.625,11.875 Z" id="Shape" fill="#00BCD4"></path>
                    </g>
                </g>
            </g>
        </g>
    </g>
</svg>