<?xml version="1.0" encoding="UTF-8" standalone="no"?>
<svg width="111px" height="108px" viewBox="0 0 111 108" version="1.1" xmlns="http://www.w3.org/2000/svg" xmlns:xlink="http://www.w3.org/1999/xlink">
    <title>List Component</title>
    <desc>List Component</desc>
    <defs></defs>
    <g id="Page-1" stroke="none" stroke-width="1" fill="none" fill-rule="evenodd">
        <g id="Material-Internal-Landing-Page-(Components)" transform="translate(-658.000000, -1494.000000)">
            <g id="List" transform="translate(658.000000, 1494.000000)">
                <g id="list-3" transform="translate(0.000000, 82.000000)">
                    <circle id="Oval" fill="#00BDD5" cx="13" cy="13" r="13"></circle>
                    <path d="M38.0576037,8.6763264 L78.4576052,8.6763264 L81.1339316,8.6763264 L81.1339316,3.3236736 L78.4576052,3.3236736 L38.0576037,3.3236736 L35.3812773,3.3236736 L35.3812773,8.6763264 L38.0576037,8.6763264 Z M37.5704708,23.8528262 L108.130468,23.8528262 L110.806795,23.8528262 L110.806795,18.5001734 L108.130468,18.5001734 L37.5704708,18.5001734 L34.8941444,18.5001734 L34.8941444,23.8528262 L37.5704708,23.8528262 Z" id="text" fill="#D8D8D8"></path>
                </g>
                <g id="list-2" transform="translate(0.000000, 41.000000)">
                    <circle id="Oval" fill="#00BDD5" cx="13" cy="13" r="13"></circle>
                    <path d="M38.0576037,9.6763264 L78.4576052,9.6763264 L81.1339316,9.6763264 L81.1339316,4.3236736 L78.4576052,4.3236736 L38.0576037,4.3236736 L35.3812773,4.3236736 L35.3812773,9.6763264 L38.0576037,9.6763264 Z M37.5704708,24.8528262 L108.130468,24.8528262 L110.806795,24.8528262 L110.806795,19.5001734 L108.130468,19.5001734 L37.5704708,19.5001734 L34.8941444,19.5001734 L34.8941444,24.8528262 L37.5704708,24.8528262 Z" id="text" fill="#D8D8D8"></path>
                </g>
                <g id="list-1">
                    <ellipse id="Oval" fill="#00BDD5" cx="13" cy="13" rx="13" ry="13"></ellipse>
                    <path d="M38.0576037,9.6763264 L78.4576052,9.6763264 L81.1339316,9.6763264 L81.1339316,4.3236736 L78.4576052,4.3236736 L38.0576037,4.3236736 L35.3812773,4.3236736 L35.3812773,9.6763264 L38.0576037,9.6763264 Z M37.5704708,24.8528262 L108.130468,24.8528262 L110.806795,24.8528262 L110.806795,19.5001734 L108.130468,19.5001734 L37.5704708,19.5001734 L34.8941444,19.5001734 L34.8941444,24.8528262 L37.5704708,24.8528262 Z" id="text" fill="#D8D8D8"></path>
                </g>
            </g>
        </g>
    </g>
</svg>
